HIERARCHY
ROOT Hips
{
	OFFSET -14.64140 90.27770 -84.91600
	CHANNELS 6 Xposition Yposition Zposition Zrotation Xrotation Yrotation
	JOINT Spine
	{
		OFFSET 0.00000 13.20850 -1.60436
		CHANNELS 3 Zrotation Xrotation Yrotation
		JOINT Spine1
		{
			OFFSET 0.00000 8.61716 0.00000
			CHANNELS 3 Zrotation Xrotation Yrotation
			JOINT Spine2
			{
				OFFSET 0.00000 8.61717 0.00000
				CHANNELS 3 Zrotation Xrotation Yrotation
				JOINT Spine3
				{
					OFFSET 0.00000 8.61717 0.00000
					CHANNELS 3 Zrotation Xrotation Yrotation
					JOINT Neck
					{
						OFFSET 0.00000 11.07920 1.10792
						CHANNELS 3 Zrotation Xrotation Yrotation
						JOINT Neck1
						{
							OFFSET 0.00000 7.08032 0.00000
							CHANNELS 3 Zrotation Xrotation Yrotation
							JOINT Head
							{
								OFFSET 0.00000 7.08031 0.00000
								CHANNELS 3 Zrotation Xrotation Yrotation
								End site
								{
									OFFSET 0.00000 0.00000 0.00000
								}
							}
						}
					}
					JOINT RightShoulder
					{
						OFFSET -0.01000 7.91373 5.19711
						CHANNELS 3 Zrotation Xrotation Yrotation
						JOINT RightArm
						{
							OFFSET -18.41580 0.00000 0.00000
							CHANNELS 3 Zrotation Xrotation Yrotation
							JOINT RightForeArm
							{
								OFFSET -29.11090 0.00000 0.00000
								CHANNELS 3 Zrotation Xrotation Yrotation
								JOINT RightHand
								{
									OFFSET -24.65040 0.00000 0.00000
									CHANNELS 3 Zrotation Xrotation Yrotation
									JOINT RightHandThumb1
									{
										OFFSET -5.35114 -0.85590 3.97906
										CHANNELS 3 Zrotation Xrotation Yrotation
										JOINT RightHandThumb2
										{
											OFFSET -4.52789 0.00000 0.00000
											CHANNELS 3 Zrotation Xrotation Yrotation
											JOINT RightHandThumb3
											{
												OFFSET -2.46976 0.00000 0.00000
												CHANNELS 3 Zrotation Xrotation Yrotation
												End site
												{
													OFFSET 0.00000 0.00000 0.00000
												}
											}
										}
									}
									JOINT RightHandIndex1
									{
										OFFSET -14.26970 0.00000 2.88139
										CHANNELS 3 Zrotation Xrotation Yrotation
										JOINT RightHandIndex2
										{
											OFFSET -5.48836 0.00000 0.00000
											CHANNELS 3 Zrotation Xrotation Yrotation
											JOINT RightHandIndex3
											{
												OFFSET -3.01859 0.00000 0.00000
												CHANNELS 3 Zrotation Xrotation Yrotation
												End site
												{
													OFFSET 0.00000 0.00000 0.00000
												}
											}
										}
									}
									JOINT RightHandMiddle1
									{
										OFFSET -14.26970 0.00000 -0.09147
										CHANNELS 3 Zrotation Xrotation Yrotation
										JOINT RightHandMiddle2
										{
											OFFSET -6.17441 0.00000 0.00000
											CHANNELS 3 Zrotation Xrotation Yrotation
											JOINT RightHandMiddle3
											{
												OFFSET -3.56743 0.00000 0.00000
												CHANNELS 3 Zrotation Xrotation Yrotation
												End site
												{
													OFFSET 0.00000 0.00000 0.00000
												}
											}
										}
									}
									JOINT RightHandRing1
									{
										OFFSET -12.69180 0.00000 -3.06433
										CHANNELS 3 Zrotation Xrotation Yrotation
										JOINT RightHandRing2
										{
											OFFSET -5.62556 0.00000 0.00000
											CHANNELS 3 Zrotation Xrotation Yrotation
											JOINT RightHandRing3
											{
												OFFSET -3.56744 0.00000 0.00000
												CHANNELS 3 Zrotation Xrotation Yrotation
												End site
												{
													OFFSET 0.00000 0.00000 0.00000
												}
											}
										}
									}
									JOINT RightHandPinky1
									{
										OFFSET -11.11390 0.00000 -6.03719
										CHANNELS 3 Zrotation Xrotation Yrotation
										JOINT RightHandPinky2
										{
											OFFSET -4.52789 0.00000 0.00000
											CHANNELS 3 Zrotation Xrotation Yrotation
											JOINT RightHandPinky3
											{
												OFFSET -2.46976 0.00000 0.00000
												CHANNELS 3 Zrotation Xrotation Yrotation
												End site
												{
													OFFSET 0.00000 0.00000 0.00000
												}
											}
										}
									}
								}
							}
						}
					}
					JOINT LeftShoulder
					{
						OFFSET 0.01000 7.91373 5.19711
						CHANNELS 3 Zrotation Xrotation Yrotation
						JOINT LeftArm
						{
							OFFSET 18.41580 0.00000 0.00000
							CHANNELS 3 Zrotation Xrotation Yrotation
							JOINT LeftForeArm
							{
								OFFSET 29.11090 0.00000 0.00000
								CHANNELS 3 Zrotation Xrotation Yrotation
								JOINT LeftHand
								{
									OFFSET 24.65040 0.00000 0.00000
									CHANNELS 3 Zrotation Xrotation Yrotation
									JOINT LeftHandThumb1
									{
										OFFSET 5.35114 -0.85590 3.97906
										CHANNELS 3 Zrotation Xrotation Yrotation
										JOINT LeftHandThumb2
										{
											OFFSET 4.52789 0.00000 0.00000
											CHANNELS 3 Zrotation Xrotation Yrotation
											JOINT LeftHandThumb3
											{
												OFFSET 2.46977 0.00000 0.00000
												CHANNELS 3 Zrotation Xrotation Yrotation
												End site
												{
													OFFSET 0.00000 0.00000 0.00000
												}
											}
										}
									}
									JOINT LeftHandIndex1
									{
										OFFSET 14.26970 0.00000 2.88139
										CHANNELS 3 Zrotation Xrotation Yrotation
										JOINT LeftHandIndex2
										{
											OFFSET 5.48836 0.00000 0.00000
											CHANNELS 3 Zrotation Xrotation Yrotation
											JOINT LeftHandIndex3
											{
												OFFSET 3.01859 0.00000 0.00000
												CHANNELS 3 Zrotation Xrotation Yrotation
												End site
												{
													OFFSET 0.00000 0.00000 0.00000
												}
											}
										}
									}
									JOINT LeftHandMiddle1
									{
										OFFSET 14.26970 0.00000 -0.09147
										CHANNELS 3 Zrotation Xrotation Yrotation
										JOINT LeftHandMiddle2
										{
											OFFSET 6.17440 0.00000 0.00000
											CHANNELS 3 Zrotation Xrotation Yrotation
											JOINT LeftHandMiddle3
											{
												OFFSET 3.56744 0.00000 0.00000
												CHANNELS 3 Zrotation Xrotation Yrotation
												End site
												{
													OFFSET 0.00000 0.00000 0.00000
												}
											}
										}
									}
									JOINT LeftHandRing1
									{
										OFFSET 12.69180 0.00000 -3.06433
										CHANNELS 3 Zrotation Xrotation Yrotation
										JOINT LeftHandRing2
										{
											OFFSET 5.62556 0.00000 0.00000
											CHANNELS 3 Zrotation Xrotation Yrotation
											JOINT LeftHandRing3
											{
												OFFSET 3.56744 0.00000 0.00000
												CHANNELS 3 Zrotation Xrotation Yrotation
												End site
												{
													OFFSET 0.00000 0.00000 0.00000
												}
											}
										}
									}
									JOINT LeftHandPinky1
									{
										OFFSET 11.11390 0.00000 -6.03719
										CHANNELS 3 Zrotation Xrotation Yrotation
										JOINT LeftHandPinky2
										{
											OFFSET 4.52789 0.00000 0.00000
											CHANNELS 3 Zrotation Xrotation Yrotation
											JOINT LeftHandPinky3
											{
												OFFSET 2.46976 0.00000 0.00000
												CHANNELS 3 Zrotation Xrotation Yrotation
												End site
												{
													OFFSET 0.00000 0.00000 0.00000
												}
											}
										}
									}
								}
							}
						}
					}
					JOINT pCube4
					{
						OFFSET 0.00000 10.91090 1.10792
						CHANNELS 3 Zrotation Xrotation Yrotation
						End site
						{
							OFFSET 0.00000 0.00000 0.00000
						}
					}
				}
			}
		}
	}
	JOINT RightUpLeg
	{
		OFFSET -9.98441 0.00000 0.00000
		CHANNELS 3 Zrotation Xrotation Yrotation
		JOINT RightLeg
		{
			OFFSET 0.00000 -42.11790 0.00000
			CHANNELS 3 Zrotation Xrotation Yrotation
			JOINT RightFoot
			{
				OFFSET 0.00000 -45.00020 -0.00001
				CHANNELS 3 Zrotation Xrotation Yrotation
				JOINT RightForeFoot
				{
					OFFSET 0.00000 -3.74820 0.00000
					CHANNELS 3 Zrotation Xrotation Yrotation
					JOINT RightToeBase
					{
						OFFSET 0.00000 0.06325 14.43120
						CHANNELS 3 Zrotation Xrotation Yrotation
						End site
						{
							OFFSET 0.00000 0.00000 0.00000
						}
					}
				}
			}
		}
	}
	JOINT LeftUpLeg
	{
		OFFSET 9.98441 0.00000 0.00000
		CHANNELS 3 Zrotation Xrotation Yrotation
		JOINT LeftLeg
		{
			OFFSET 0.00000 -42.11800 0.00000
			CHANNELS 3 Zrotation Xrotation Yrotation
			JOINT LeftFoot
			{
				OFFSET 0.00000 -45.00070 0.00000
				CHANNELS 3 Zrotation Xrotation Yrotation
				JOINT LeftForeFoot
				{
					OFFSET 0.00000 -3.74824 0.00000
					CHANNELS 3 Zrotation Xrotation Yrotation
					JOINT LeftToeBase
					{
						OFFSET 0.00000 0.06325 14.43110
						CHANNELS 3 Zrotation Xrotation Yrotation
						End site
						{
							OFFSET 0.00000 0.00000 0.00000
						}
					}
				}
			}
		}
	}
}
MOTION
Frames: 4
Frame Time: 0.050000
0.012586662505897864 0.049234405990151976 -0.044345042586662754 -0.03799033462314759 0.0037535494464387116 -0.01702922494345418 -2.4750979937267052 -0.18813040863700858 -0.9211701295379613 -0.9538072630199115 3.7186736536612615 0.38313321024310143 -1.322314553532863 -2.1375430407652942 -1.269835621521422 0.8275840222180443 0.17244830284527252 -0.8631934837914114 1.2267138285330488 14.648593638403577 -3.5868791122180115 0.36782491233211695 1.207235016602164 -9.325104943223838 1.5578049560968485 -13.159424396566521 -0.6963931750938275 -7.419036481314499 2.365998278636481 -15.64995565892001 68.36393573335764 -2.072133350673958 13.206566122264986 22.4760204544958 3.129467522907203 98.36391233614508 10.961695155479871 -0.36437401593563706 -2.0136540161230636 4.505272857669691 -0.10748845834401713 -1.6213806292151447 0.010372243361228495 -0.010595289095126139 -56.21293349755275 -0.0350262776635179 0.026264637895103495 -56.229543589003 -38.72095588342797 -0.01108140724837946 0.013787556063787737 -0.04324166930122443 -0.02166098218981934 0.02686346316567985 0.01691227824012676 0.015618614858932001 0.008023854298367763 -36.717375629722206 -0.034918608233442124 0.014961859525771542 0.041660588511518076 0.02191894263305441 0.0029661571044582976 -0.03707055327616153 -0.0042282833974579635 0.028416474469336827 -19.741862528098235 -0.005378714177781333 0.04877967264052159 0.012501744255978746 -0.001390670729780151 0.02925420284099357 -0.011309144768834111 0.03525651392827616 -0.01931170750792496 24.035586524850387 -0.0015238943511645684 -0.0012979792455467443 28.873628874013747 0.02609555630954395 -0.008183196568354085 28.82652130600185 0.014962923910397254 -0.03369890475499051 7.264317338798515 1.7404410035316336 13.173014578113788 -68.409866916042 15.186542248787157 -12.56824455584515 -22.457123913922995 1.9837834986087404 -100.60558911993661 -1.9349534071014938 -1.7306900825109843 -1.8623147354720941 -0.47111112555152607 0.055254572377267316 -8.160771222444916 0.04581779450613565 -0.03618297598773677 44.6014956422591 0.03859402357046307 0.0064732912787480645 44.57418329831458 12.4836790931781 0.03202648690136748 0.039132805634169085 -0.006993290908211752 -0.02927241268769876 -0.029946042965018804 0.02462128721324377 0.04829749999118482 0.03508040026359181 11.12992609273838 -0.01727321106682251 0.006843338032353192 0.03515565656040148 -0.0450052418860625 0.0038307290611947066 0.013274758274542935 -0.022297449902797892 0.04954808972926036 4.745253327123308 0.03222065507599086 -0.01840465856741081 0.03874083020615177 0.03844541966446725 0.0027360875938759045 0.04539529256839861 0.0046500181285697535 0.041298038746007314 -5.5794341162802885 -0.0009782583040042882 0.04539993273104864 -6.73916897705936 -0.048666570489459 0.03493737920584338 -6.686025973414811 -0.0045371754599409985 -0.023806786749453544 0.02719527867622445 0.01849665934255673 0.025871501858117558 8.00378553796049 3.5097271304785216 -19.25748871002684 -0.0022664414478694565 10.374324074706928 0.005606776223539894 -5.603555091327293 -15.681816199206443 3.1848591232283754 0.03169783449626644 -0.03118973815038299 0.001340597942860722 -0.00020788241891750157 4.719853945937165 -0.034885471645726855 12.416639143585902 -8.201541410590435 6.869631942137391 -0.021263981528253848 46.404103067713265 -0.02258775973737857 -4.312713572116782 -14.709067506647825 -3.8402279447883 0.03722687783825853 0.03791410003943388 -0.03690184353690395 -0.001990795811118751 -10.78489337091867 -0.00845207085248462 
-0.03583076662606011 0.02352278766773764 0.02876964047492025 -0.0035512429198281538 0.0412970197520276 0.04491654500267031 -2.5056154869204037 -0.1359147590362888 -0.8375678176345814 -0.973193692427162 3.73049595481229 0.40161640957517775 -1.4102590396490358 -2.210400709265446 -1.2428069340365162 0.7636335174232615 0.12137769564587417 -0.8689990830456259 1.174512007372169 14.731205873949259 -3.4084633310043477 0.3795509979742266 1.3383525547820556 -9.001299955404024 1.5481933093929143 -12.903761932636687 -0.6718316173712864 -7.533989683297373 2.4147564049097605 -15.481389616248107 67.91714737634437 -2.328113418715741 15.222263734772918 21.964471175484096 2.8847495872921582 98.09258041811529 11.542052179312147 -0.350652967834526 -2.198293338274621 4.525117577648561 -0.15643358971336602 -1.567552362343993 0.0335694029649535 -0.004664637311906972 -56.247071366852346 -0.017832082377795322 0.025388087717738428 -56.22721612059409 -38.755826939736686 0.021622868454736505 -0.005319467194876797 0.0015252405538442085 0.04817305514968449 -0.006334213158990645 0.014414711798695884 0.008106569294148814 0.008698467394205897 -36.68968552037444 0.04631338154650225 0.003939351912806419 0.017327204027275365 0.008932356915142629 -0.006880131364471545 -0.022700723888276785 -0.04711418794005812 -0.028276808889771292 -19.729395291535383 -0.0008808603668018685 -0.01461341945267903 -0.03878313482713071 0.03658571051503338 0.048315106441536464 -0.04694152977937155 0.009881341488666541 -0.016632213263067304 24.03960201194046 -0.006955272130054524 -0.03184999848103682 28.88228412724245 -0.011992514984889865 0.030876494435340136 28.82695382581731 -0.04987366234377842 0.01199741713937871 7.273208305897931 1.788969893346326 13.066725244726621 -68.01008984918462 15.656053710968287 -13.68379367727591 -21.406109426228 1.3710156222674663 -99.93322237472869 -2.5174214555080123 -1.9343143678630577 -1.4868474089404085 -0.5042109114325023 0.11364601343034235 -8.118665171631752 0.02801597947105503 -0.02851131396783169 44.566606295714365 -0.015952188651610855 0.00910287081222518 44.549179030128116 12.416314653756205 0.00969616177477618 0.02743714094501534 0.03666772615133907 -0.009245260893372359 -0.027195768404538925 0.04295335715693318 -0.0474810886359641 0.008622711955143964 11.118832552726294 -0.00394003397586764 0.02641618057508703 -0.025930493069236633 -0.009494339665878548 -0.0004338430947345434 -0.04132042275771803 -0.002723946169496444 0.04967472727684271 4.740232448951585 0.017701547300224472 -0.039362183205434324 0.032021565007939186 0.04222445748305322 -0.029798279248494774 -0.008763155197991725 0.03838175562262356 -0.013457702785740053 -5.628884048869401 -0.010858168669483423 -0.028359222472547747 -6.746535545226574 -0.04115884849831452 0.015102894283842252 -6.675189541540939 0.014213832701871112 0.03432961280564567 -0.011862936902540392 0.04087615172691079 0.014410610736145897 8.010599609133717 3.539611238609184 -19.240245055582417 -0.026913166058090004 10.394955364260827 -0.01825095160485853 -5.576558551278972 -15.667919665681847 3.155721343850306 -0.02308422149098603 -0.030972309850826364 -0.006369424731882038 -0.044274625309294005 4.702894431877614 0.04332397848834227 12.478851192310115 -8.239041783904288 6.851907892425279 0.04361033380258677 46.41379278947252 -0.012557552042707124 -4.285020512884277 -14.781544074293798 -3.8413360988352743 -0.010553555665265791 0.015265032711644382 0.006650686590260885 -0.04237438894483676 -10.736665402306127 -0.021886990391023597 
0.012480409665964589 0.03445066621390675 0.03183000451506212 -0.04524560398225094 0.022338797847426685 0.003683740788313598 -2.6298408403427156 -0.16693903182524816 -0.8587930952123494 -0.9586218622068695 3.672369223172969 0.38646605262150685 -1.4030092053469663 -2.185242881377089 -1.1663078481119442 0.6989919387408439 0.0960043872921134 -0.8392541720261949 1.206558685215721 14.8356212184005 -3.212974524117804 0.4805558972188316 1.4495053821157433 -8.51195695700947 1.5020077807537615 -12.716362415659646 -0.6474518334705159 -7.67333513505086 2.421340628914813 -15.277303573197388 67.9055570880538 -1.8071779230998033 17.079894684414803 21.442031883210184 3.035970384638667 97.66448534414731 12.210701516427502 -0.36822772023139777 -2.4760125660797923 4.53189098592635 -0.08896648026821644 -1.563892329898637 0.04688044759751829 0.040312285326888075 -56.257844752735686 -0.01965048850477369 0.011324110436130063 -56.23275086461375 -38.76536650637528 -0.01082666136621498 -0.008129437239694181 0.01435840912785173 -0.00042572681931797693 -0.01544035220255684 0.046437606411309604 -0.039480819386567785 0.03635031425154431 -36.673060469445296 0.03230767476806428 -0.02110475154062985 0.02195959899574424 -0.011125145004342654 -0.0408429833894944 0.01246891777192739 0.04607934757984259 0.021459533935546733 -19.72016984803917 -0.028211375587269695 -0.011115640247509414 0.003938446719409413 -0.030459375421665776 -0.04192062280158257 -0.012983291553415387 -0.0008394504393741842 0.0020166732305226536 24.08570320764146 0.033280525021371236 -0.029193550298681332 28.87931972787001 0.01624551822210313 0.010527460419515366 28.8293616086211 0.010897756138971513 0.006784039584918785 7.377533663266104 1.8125929743685503 12.865045040907304 -67.9170604945877 16.25910169104195 -14.838646254959382 -21.547235507951275 1.5440430310907522 -99.45444256318812 -3.47376407832717 -2.230957872172014 -1.0483110278608445 -0.5122043530884741 0.06958842118773359 -8.16715424451253 0.02241012010148607 0.029746022173196843 44.6063383132786 -0.023637823241486618 -0.014613298111928297 44.57782726651567 12.444963396597826 -0.010845992465092087 0.019045196161755592 -0.01066182633228309 0.021866853351532923 0.003259761714849562 0.023021517828599902 0.017315645521837963 0.009608459554027261 11.146030515592418 -0.04820308427141485 -0.013117777647305531 0.03769214355995205 0.032358590237310775 -0.04775835852260788 0.02259216580738814 0.04137010851842071 0.014775836830398683 4.735684447405191 0.005351972826143169 0.02295824791322808 0.03884884282707337 0.02991539054564787 -0.0005251262125069558 0.021435215473075503 -0.043627172149115045 -0.046136345590541375 -5.613129264673045 -0.025002203342698818 -0.03453618696306313 -6.721372312117843 -0.03941218084192058 -0.025587342043626286 -6.748480752836054 -0.006972748533402198 0.014218934865138753 0.020429151852243657 -0.030135315336942737 0.017644042306615995 8.048466175369771 3.5213469161854114 -19.22803326057288 0.006536987643263326 10.349670560934705 0.0527204242671261 -5.63408707358765 -15.620178989963394 3.2160913609697825 -0.0326196792812059 -0.009410458408320829 -0.022033716160116346 0.0388494293082834 4.739115115675654 -0.029052639295579778 12.474966465587315 -8.222183392903613 6.9018993162783655 -0.02687275649625008 46.4214081598401 -0.0423748465151094 -4.352045133148093 -14.780068249026645 -3.817460020441205 -0.0024027628322019837 -0.01587547370786492 -0.008587896549566472 -0.0038038815951934126 -10.747540701014055 0.01041807215886791 
-0.015894181305638973 -0.004832794655444276 0.005806967876131719 -0.049107219549124614 -0.009434241491977389 0.005041901962892272 -2.6932635281894637 -0.18427335555545965 -0.8164403260219617 -0.9402153329348149 3.648897032202246 0.4047547568969909 -1.3994068033391378 -2.2426610848506456 -1.2041935618137072 0.5280409415071943 0.12080419564849527 -0.8190647050712621 1.0533753922239526 14.863830607983106 -2.9428715440633635 0.4592223003430735 1.580227876401914 -7.890792758383392 1.4829398784145233 -12.448247785689219 -0.5613020204201146 -7.725633890293106 2.4639500498076603 -15.001625751418215 68.45297470150614 -1.0134265413928163 18.61892777387355 21.74760342172491 3.259678309147953 97.11899499639259 12.970522318713455 -0.43438863685151213 -2.839456317152256 4.49238747621605 -0.13418888719151295 -1.5494960191298435 -0.0013270188599691102 0.010212711254529409 -56.27500638184136 -0.008714664609938428 -0.01512303040169836 -56.229364337881655 -38.81155627742755 0.040627775785254755 0.03859280796212245 -0.017430835653008327 -0.007373314570550743 0.0005984741841865993 0.030373000848525115 0.011639627430917341 -0.04255263728999308 -36.69328143816993 -0.027478824400527093 -0.0437459813036668 0.020727624197869162 0.012667584116607726 0.02445239005672906 -0.00031383257905254447 0.029460143163030503 -0.02879163908881183 -19.80572673996232 -0.03414440032570365 0.0058954069784810026 -0.023146539286148654 -0.027307627990361787 -0.011135609665702527 0.048679590622698735 -0.03979636314793422 0.02844590234958056 24.080436854430214 -0.03419194602160799 -0.047059136112957416 28.894053312808598 -0.02315095256215816 0.03810810745417268 28.844080151077048 0.007926149165575058 0.027132923525845485 7.689892396603597 1.8610832190265756 12.82759667750559 -68.02617885954716 16.1723011634509 -16.2885378853279 -23.02490579808904 2.3101987926226353 -99.21630954906603 -4.176870414988905 -2.266954476549008 -0.8401605785809703 -0.45597204987717344 0.10481625037491178 -8.097574069605093 0.04354762540505145 0.0010797420802799444 44.52179929283471 0.028396060261114155 0.01905402508652001 44.5460242224177 12.469633421534663 -0.046322586809080295 -0.04710544729329352 -0.0019611807928957845 0.03267354673455342 -0.04671074484582653 -0.03321005641657603 -0.034213759195859166 0.010579689193666272 11.096163810694291 -0.03199868517227018 0.043836505912946744 -0.047997996236878296 0.044466690811773034 -0.0019106253103804997 -0.04227777521269959 -0.04526621441947654 -0.03500233327031215 4.768309963162798 0.022226322879257458 -0.04390372132012777 0.004494520356968894 0.04754065302377407 0.04910610996431938 -0.023096659665929335 -0.03418839195960858 0.023671370557222224 -5.613462623316696 0.035990073179051174 0.02815868794858716 -6.684902797550215 0.00694426799211491 -0.002612134239262109 -6.702018469727843 -0.012894114440137622 0.004822181572884373 0.039902729682117805 -0.018064020202277334 0.027213232073269016 8.082650267917785 3.5148977355335016 -19.257244392692442 -0.0007959794048077331 10.386812644792473 0.028123396040543494 -5.61378961931418 -15.676374412544847 3.1731873574234095 -0.04275655456277117 0.022821553511688953 0.010326634685480039 0.03720475224655901 4.691416472937937 -0.007453315502333017 12.495792042813042 -8.225155351335571 6.8382519061600355 -0.019927775956870224 46.360476426662814 -0.029219347758562757 -4.275403341770988 -14.776507472588797 -3.877366136144885 0.0018031637938313843 -0.002899757255668669 0.004092711988487315 -0.03703764683875615 -10.751766191277172 0.0030580812603292038 
